<?xml version="1.0" encoding="UTF-8" standalone="no"?>
<!-- Created with Inkscape (http://www.inkscape.org/) -->

<svg
   width="135.51408mm"
   height="101.68501mm"
   viewBox="0 0 135.51408 101.68501"
   version="1.1"
   id="svg1"
   xml:space="preserve"
   xmlns:inkscape="http://www.inkscape.org/namespaces/inkscape"
   xmlns:sodipodi="http://sodipodi.sourceforge.net/DTD/sodipodi-0.dtd"
   xmlns="http://www.w3.org/2000/svg"
   xmlns:svg="http://www.w3.org/2000/svg"><sodipodi:namedview
     id="namedview1"
     pagecolor="#ffffff"
     bordercolor="#666666"
     borderopacity="1.0"
     inkscape:showpageshadow="2"
     inkscape:pageopacity="0.0"
     inkscape:pagecheckerboard="0"
     inkscape:deskcolor="#d1d1d1"
     inkscape:document-units="mm" /><defs
     id="defs1" /><g
     inkscape:label="Layer 1"
     inkscape:groupmode="layer"
     id="layer1"
     transform="translate(105.35554,-97.647107)"><path
       style="fill:#000000"
       d="m -95.946098,198.89212 c -4.181492,-1.12613 -7.416022,-4.16476 -8.780662,-8.24888 -0.70271,-2.10307 -0.88505,-81.4459 -0.19238,-83.70692 1.37069,-4.47416 4.67944,-7.69376 9.086482,-8.841647 2.291081,-0.596751 114.28788,-0.596751 116.57896,0 4.27027,1.112266 7.49349,4.117847 8.90298,8.301837 0.54539,1.61897 0.54717,1.77761 0.478,42.58792 l -0.0694,40.9629 -1.12386,2.26797 c -1.73195,3.4951 -4.45091,5.71672 -8.1877,6.69003 -2.21732,0.57753 -114.546078,0.56482 -116.6924,-0.0132 z m 115.80138,-8.31515 c 2.45085,-1.25033 2.25595,1.71387 2.33623,-35.53125 l 0.0712,-33.00949 -26.9340404,17.9535 c -37.3328296,24.88505 -28.4107996,24.88505 -65.7436226,0 l -26.934037,-17.9535 0.07116,33.00949 c 0.08014,37.17953 -0.107445,34.25704 2.279845,35.51829 1.535088,0.81101 113.26428,0.82362 114.85331,0.013 z m -55.47883,-39.86294 c 2.87747,-1.488 56.77388,-37.78688 57.21529,-38.53412 1.12604,-1.90624 0.27392,-4.73126 -1.73646,-5.75688 -1.46722,-0.74852 -113.157751,-0.82905 -114.730521,-0.0827 -2.015401,0.95637 -2.932601,3.9271 -1.80292,5.8395 0.423707,0.71728 50.104957,34.22822 56.473581,38.09249 1.64622,0.99888 3.21171,1.14983 4.58103,0.44173 z"
       id="path19" /></g></svg>
