<?xml version="1.0" encoding="UTF-8" standalone="no"?>
<!-- Created with Inkscape (http://www.inkscape.org/) -->

<svg
   width="153.86758mm"
   height="175.74057mm"
   viewBox="0 0 153.86758 175.74057"
   version="1.1"
   id="svg1"
   xml:space="preserve"
   xmlns:inkscape="http://www.inkscape.org/namespaces/inkscape"
   xmlns:sodipodi="http://sodipodi.sourceforge.net/DTD/sodipodi-0.dtd"
   xmlns="http://www.w3.org/2000/svg"
   xmlns:svg="http://www.w3.org/2000/svg"><sodipodi:namedview
     id="namedview1"
     pagecolor="#ffffff"
     bordercolor="#666666"
     borderopacity="1.0"
     inkscape:showpageshadow="2"
     inkscape:pageopacity="0.0"
     inkscape:pagecheckerboard="0"
     inkscape:deskcolor="#d1d1d1"
     inkscape:document-units="mm" /><defs
     id="defs1" /><g
     inkscape:label="Layer 1"
     inkscape:groupmode="layer"
     id="layer1"
     transform="translate(-43.026128,-199.27969)"><path
       style="fill:#000000"
       d="m 99.097525,365.79005 v -9.22978 l -7.46555,-0.17042 c -16.44598,-0.37542 -23.18572,-5.36417 -29.40581,-21.76614 -1.2035,-3.17355 -2.29992,-6.04611 -2.4365,-6.38346 -0.39885,-0.98523 -2.03895,-1.61771 -4.19488,-1.61771 -10.92935,0 -16.59435,-11.72576 -9.27517,-19.19828 2.83703,-2.89646 4.19057,-3.26866 12.32412,-3.38893 13.98621,-0.2068 18.03379,2.42827 23.66544,15.40675 4.41186,10.16743 4.64621,10.37321 12.0246,10.55899 l 4.67544,0.11773 0.40851,-2.79383 c 1.125815,-7.69953 3.621315,-13.39894 7.855325,-17.94056 1.5093,-1.61896 1.51,-1.62089 0.70074,-1.95465 -0.44553,-0.18375 -2.50911,-1.03645 -4.58573,-1.89489 -30.004725,-12.40345 -43.588275,-47.32319 -27.304225,-70.19203 0.66805,-0.93819 0.70287,-1.46269 0.70287,-10.58577 0,-12.41182 0.6915,-16.51421 3.88952,-23.07509 l 1.08751,-2.23108 4.80541,-0.11052 c 9.96151,-0.2291 16.322545,2.12147 22.887995,8.45775 l 1.95015,1.88209 1.99714,-0.54883 c 11.56597,-3.17844 25.16105,-3.32162 37.47609,-0.39469 l 3.55733,0.84547 2.17283,-2.03258 c 6.32379,-5.91559 12.61929,-8.26363 22.16772,-8.2679 l 5.36871,-0.002 1.43016,3.261 c 2.92991,6.68068 3.21936,8.47777 3.36965,20.92126 0.11928,9.8769 0.19387,11.05435 0.7501,11.8419 17.41771,24.66086 1.85851,59.74779 -32.02156,72.21054 -0.55306,0.20344 -0.42903,0.45609 0.99815,2.03327 3.27951,3.6242 5.66691,7.9756 7.10454,12.9491 0.73058,2.52744 0.74855,3.10533 0.85694,27.55254 l 0.11072,24.97095 H 132.92166 99.097525 Z m 59.724325,-18.66563 c 0,-27.34204 0.36218,-26.06262 -10.39923,-36.73495 -3.57746,-3.54785 -6.43344,-6.52166 -6.34662,-6.60848 0.0868,-0.0868 2.65622,-0.77364 5.70979,-1.52628 34.31023,-8.45672 50.81642,-37.94828 35.25176,-62.98421 l -1.49585,-2.40608 -0.15886,-11.32703 c -0.1637,-11.67218 -0.47824,-14.44542 -2.0229,-17.83558 -1.55454,-3.41184 -12.67229,0.84603 -19.36241,7.4154 l -3.4581,3.39568 -1.51893,-0.53656 c -13.06955,-4.61684 -31.15749,-4.61684 -44.22705,0 l -1.51893,0.53656 -3.4581,-3.39568 c -6.707105,-6.58606 -17.803915,-10.83591 -19.362405,-7.4154 -1.54466,3.39016 -1.8592,6.1634 -2.0229,17.83558 l -0.15885,11.32703 -1.49585,2.40608 c -15.6762,25.21533 1.17212,54.77291 35.989465,63.13758 2.6055,0.62596 4.82367,1.2245 4.92926,1.33009 0.10558,0.10559 -2.48957,2.81018 -5.76701,6.0102 -8.63336,8.42942 -9.18346,9.48389 -11.30234,21.66525 -0.8613,4.95157 -3.18944,6.1927 -11.616405,6.1927 -11.52793,0 -14.27286,-2.00898 -19.40012,-14.1987 -4.49742,-10.6923 -5.89932,-11.71617 -16.04201,-11.71617 -6.35946,0 -6.41417,0.006 -7.33033,0.85811 -2.96298,2.75451 -1.14595,6.17838 3.27883,6.17838 7.31528,0 9.88981,2.42926 13.92878,13.14286 5.23433,13.88437 8.70779,16.37428 23.30299,16.70453 13.075045,0.29585 14.244585,1.37245 14.244585,13.11257 v 5.78058 h 25.91487 25.91487 z"
       id="path18" /></g></svg>
