<?xml version="1.0" encoding="UTF-8" standalone="no"?>
<!-- Created with Inkscape (http://www.inkscape.org/) -->

<svg
   width="135.53961mm"
   height="77.036118mm"
   viewBox="0 0 135.53961 77.036118"
   version="1.1"
   id="svg1"
   xml:space="preserve"
   xmlns:inkscape="http://www.inkscape.org/namespaces/inkscape"
   xmlns:sodipodi="http://sodipodi.sourceforge.net/DTD/sodipodi-0.dtd"
   xmlns="http://www.w3.org/2000/svg"
   xmlns:svg="http://www.w3.org/2000/svg"><sodipodi:namedview
     id="namedview1"
     pagecolor="#ffffff"
     bordercolor="#666666"
     borderopacity="1.0"
     inkscape:showpageshadow="2"
     inkscape:pageopacity="0.0"
     inkscape:pagecheckerboard="0"
     inkscape:deskcolor="#d1d1d1"
     inkscape:document-units="mm" /><defs
     id="defs1" /><g
     inkscape:label="Layer 1"
     inkscape:groupmode="layer"
     id="layer1"
     transform="translate(-180.18253,-102.59593)"><path
       style="fill:#000000"
       d="m 214.26138,179.40725 c -26.66083,-2.81886 -42.18656,-32.24944 -29.69027,-56.28088 13.37609,-25.723376 49.51837,-27.685176 65.5794,-3.55964 18.05133,27.11522 -3.62167,63.25217 -35.88913,59.84052 z m 62.115,-2.44972 c -18.71345,-6.19729 -22.05508,-54.6493 -4.7625,-69.05395 15.49425,-12.906646 31.72592,16.00945 25.77113,45.91031 -3.17706,15.95302 -12.31715,26.02198 -21.00863,23.14364 z m 31.19326,-4.01306 c -2.09586,-2.09586 -3.77328,-8.54786 -4.9174,-18.91418 -0.45179,-4.09345 -0.45179,-21.83572 0,-25.92917 2.24977,-20.38406 7.14142,-25.90944 10.6475,-12.0269 5.36591,21.24666 1.08945,63.6898 -5.7301,56.87025 z"
       id="path17"
       inkscape:export-filename="path17.svg"
       inkscape:export-xdpi="518.195"
       inkscape:export-ydpi="518.195" /></g></svg>
