<?xml version="1.0" encoding="UTF-8" standalone="no"?>
<!-- Created with Inkscape (http://www.inkscape.org/) -->

<svg
   width="78.360184mm"
   height="79.86396mm"
   viewBox="0 0 78.360184 79.86396"
   version="1.1"
   id="svg1"
   xml:space="preserve"
   xmlns:inkscape="http://www.inkscape.org/namespaces/inkscape"
   xmlns:sodipodi="http://sodipodi.sourceforge.net/DTD/sodipodi-0.dtd"
   xmlns="http://www.w3.org/2000/svg"
   xmlns:svg="http://www.w3.org/2000/svg"><sodipodi:namedview
     id="namedview1"
     pagecolor="#ffffff"
     bordercolor="#666666"
     borderopacity="1.0"
     inkscape:showpageshadow="2"
     inkscape:pageopacity="0.0"
     inkscape:pagecheckerboard="0"
     inkscape:deskcolor="#d1d1d1"
     inkscape:document-units="mm" /><defs
     id="defs1" /><g
     inkscape:label="Layer 1"
     inkscape:groupmode="layer"
     id="layer1"
     transform="translate(-203.66106,-209.34048)"><path
       style="fill:#000000;stroke-width:0.245643"
       d="m 208.34909,283.78344 c 2.5656,-2.98123 9.38104,-10.89543 15.14541,-17.5871 5.76436,-6.69168 10.51727,-12.25294 10.56202,-12.35836 0.0601,-0.14163 -26.29932,-38.76013 -29.86648,-43.75657 l -0.52897,-0.74092 11.75236,0.009 11.75237,0.009 9.98292,14.57113 c 5.4906,8.01411 10.02085,14.57315 10.06723,14.57563 0.0464,0.003 5.72986,-6.55848 12.62998,-14.57991 l 12.54567,-14.58443 h 3.48448 c 2.73223,0 3.45869,0.0418 3.36499,0.19335 -0.0657,0.10634 -6.58022,7.70242 -14.47664,16.88017 -7.89643,9.17775 -14.33791,16.74681 -14.31438,16.82014 0.04,0.12472 29.37857,42.87191 30.88117,44.99481 l 0.69003,0.97489 -11.75143,-0.009 -11.75142,-0.009 -10.37288,-15.13996 c -5.70508,-8.32699 -10.47816,-15.27247 -10.60685,-15.43442 -0.21926,-0.27594 -1.06738,0.67587 -13.49254,15.14206 l -13.25857,15.4365 -3.55161,0.007 -3.5516,0.007 z m 63.86459,0.21517 c -0.0686,-0.11758 -11.00318,-15.77049 -24.29905,-34.78424 l -24.17431,-34.57045 h -5.20483 -5.20484 l 0.28829,0.44248 c 0.15856,0.24337 11.09484,15.89627 24.30285,34.78424 l 24.01456,34.34175 h 5.20103 c 4.36151,0 5.1809,-0.0345 5.0763,-0.21378 z"
       id="path16" /></g></svg>
